<svg width="279" height="295" viewBox="0 0 279 295" fill="none" xmlns="http://www.w3.org/2000/svg">
<path d="M88.4962 140.838L49.9424 134.416C49.9627 144.355 38.0234 192.674 27.9047 193.951C19.1595 194.35 18.4645 183.43 17.7311 176.694C15.2005 153.079 27.6516 73.6617 42.4473 55.8058C44.3204 53.5441 45.6257 51.098 49.0521 52.4469C60.933 57.1194 56.0066 108.432 52.5036 119.041L91.0573 125.463C95.5878 98.8047 120.682 28.2867 149.126 21.3831C168.276 16.7322 171.387 22.1286 168.942 39.3186C166.197 58.4935 156.595 81.4641 153.185 100.319C150.138 117.169 173.639 138.86 184.948 150.022C202.911 167.768 223.8 182.321 243.228 198.276C245.209 200.761 247.898 205.997 248.058 208.986C248.855 223.065 240.596 284.327 231.089 291.452C228.08 293.704 226.998 293.195 223.732 292.322C207.905 288.159 176.742 272.403 161.653 263.994C115.158 238.054 72.8548 199.523 88.4671 140.833L88.4962 140.838Z" fill="#DEDB42"/>
<path d="M198.749 192.215L189.761 246.173C188.17 255.724 157.885 234.698 153.473 231.36C113.772 201.283 116.405 170.747 144.132 131.672C158.237 155.51 179.437 172.867 198.749 192.215Z" fill="#242062"/>
</svg>
