<svg width="206" height="211" viewBox="0 0 206 211" fill="none" xmlns="http://www.w3.org/2000/svg">
<path d="M205.15 49.1701C206.997 50.9414 200.974 95.2509 199 99.9577C195.964 107.17 177.111 123.466 169.241 126.427L176.099 209.934L169.419 204.342L164.94 127.313H156.032C158.639 140.294 158.689 153.529 160.233 166.688C160.536 169.395 162.207 176 157.171 174.229C153.375 172.887 154.691 134.221 151.401 127.515C118.707 131.564 86.1138 131.918 53.3435 127.313C51.977 128.704 51.7492 161.348 51.1925 166.485C50.8383 169.825 50.7117 173.368 46.6629 174.203L48.8644 127.313H42.1839L37.7048 209.934C35.2755 210.364 33.4282 209.833 32.0364 207.733C29.7843 204.342 38.8942 136.878 37.8567 126.351C37.5277 124.58 31.0749 125.061 27.5574 122.985C25.8367 121.973 6.04794 99.7805 5.3647 98.2622C0.961587 88.4944 4.50433 64.0496 0 52.6875C1.31587 47.5 13.1081 50.1317 17.081 46.3865C23.7616 37.7574 33.3776 9.16253 40.0329 3.49416C47.751 -3.0852 56.5319 2.25414 65.5406 2.40598C91.529 2.78555 117.897 2.91208 143.886 2.40598C149.655 2.30475 155.83 -1.16201 161.169 0.406917C170.861 3.2411 181.768 44.109 193.889 48.2338C197.254 49.3725 204.77 48.8158 205.2 49.1954L205.15 49.1701Z" fill="#242062"/>
<path d="M178.351 96.0605C178.857 99.3249 174.429 99.1731 172.101 99.831C138.192 109.346 78.5475 109.194 43.93 102.109C39.9064 101.273 30.3664 100.312 28.7468 96.0605H178.351Z" fill="#DACAB3"/>
</svg>
