<svg width="204" height="200" viewBox="0 0 204 200" fill="none" xmlns="http://www.w3.org/2000/svg">
<path d="M159.439 149.753V199.67C157.419 200.666 152.301 197.649 152.301 196.114V149.753H140.421L141.579 161.66C133.875 162.36 137.08 150.076 134.306 149.618C126.09 148.271 78.4086 148.19 70.4348 149.618C68.4414 149.968 69.2765 163.545 61.9761 164.03L64.3198 149.78H50.0694V199.67H42.9307V149.753C42.9307 149.43 38.9977 149.43 37.0312 147.463C19.4134 129.818 -0.682594 93.1014 0.0178042 67.6715C2.76552 -30.1688 241.682 -23.3264 198.581 97.4115C193.112 112.713 175.091 145.982 159.385 149.726L159.439 149.753Z" fill="#DACAB3"/>
<path d="M42.9841 118.856C41.7988 113.226 43.7923 115.031 46.0551 113.522C68.3062 98.8675 136.164 99.1638 158.792 113.495C161.217 115.031 162.941 113.306 161.836 118.856H42.9841Z" fill="#F3F052"/>
</svg>
