<svg width="226" height="227" viewBox="0 0 226 227" fill="none" xmlns="http://www.w3.org/2000/svg">
<path d="M212.615 58.359C215.069 62.2054 226.229 57.8529 225.824 77.6669C225.571 89.6869 216.208 130.175 211.147 141.31C206.39 151.71 190.397 164.034 188.929 168.007C187.689 171.322 191.712 183.089 189.941 188.225C180.199 190.908 183.235 180.33 181.008 172.587C170.178 178.989 157.626 180.001 145.303 179.293C146.239 185.847 149.427 224.387 147.53 226.183C147.201 226.487 138.951 226.487 138.622 226.183C136.851 224.488 137.281 183.215 136.37 177.066L58.3539 163.705C54.9883 168.993 50.7117 202.32 49.1934 203.712C48.8138 204.067 40.7161 204.142 40.4125 203.839C37.6036 201.156 48.662 167.678 49.3452 161.453C-4.93452 155.607 6.55406 94.5708 0 55.373C0.809767 44.6183 8.04707 44.9219 17.0051 45.2003L101.55 52.1592C104.333 51.3747 112.861 6.38208 123.034 1.82713C128.12 -0.450337 182.476 -0.298484 191.105 0.663115C199.734 1.62471 208.667 5.21806 211.324 13.9484C214.335 23.8427 210.059 54.2849 212.665 58.3843L212.615 58.359Z" fill="#242062"/>
<path d="M171.873 87.8905C173.67 89.9909 166.154 121.268 164.256 125.671C157.778 140.778 142.899 137.539 128.55 136.806C114.202 136.072 46.1059 127.999 38.1348 122.28C31.0999 117.219 29.8853 105.579 31.4036 97.7595C33.1497 88.6244 53.6216 87.2073 61.8711 85.8155C99.3988 79.4385 134.396 82.5764 171.898 87.9158L171.873 87.8905Z" fill="#DEDB42"/>
</svg>
