<svg width="276" height="233" viewBox="0 0 276 233" fill="none" xmlns="http://www.w3.org/2000/svg">
<path d="M65.6201 204.977C64.3826 206.339 57.2708 208.436 55.5513 207.962C52.5404 207.125 35.5379 175.704 30.6257 171.415L53.4997 153.844C52.5959 134.445 23.3977 99.8809 24.1977 84.0716C24.6851 74.5206 76.4594 44.6868 86.9213 41.061C108.154 33.693 124.182 35.062 136.965 54.7969C148.357 72.3803 144.88 94.293 168.555 95.6757C195.561 97.2746 227.185 86.8546 249.949 108.191C262.71 120.157 279.683 153.378 261.127 165.502C238.697 171.927 214.879 184.897 192.867 190.674C148.964 202.191 162.723 169.246 140.657 149.763C126.244 137.013 95.5665 138.011 82.3273 152.013C69.0881 166.015 67.5595 202.858 65.6444 204.97L65.6201 204.977Z" fill="#DEDB42"/>
<path d="M145.768 135.544C132.609 129.545 119.33 126.031 104.976 131.133C106.615 124.542 113.392 120.934 116.536 114.985C126.9 95.363 118.801 67.0953 108.868 48.639C125.88 43.9757 142.574 71.9813 142.498 86.0246C142.48 89.2192 139.143 92.6945 138.581 96.4688C136.466 110.658 142.2 122.114 145.768 135.544Z" fill="#242062"/>
</svg>
