<svg width="269" height="269" viewBox="0 0 269 269" fill="none" xmlns="http://www.w3.org/2000/svg">
<path d="M89.8941 217.3C74.7463 215.683 13.6097 147.434 18.8274 124.703L84.4411 52.1287C90.9173 46.5804 99.2223 60.5915 103.18 59.7662C113.358 57.6442 152.132 26.1246 159.513 27.9324C164.477 31.2767 169.765 34.3768 174.184 38.5224C202.22 64.9856 232.278 99.6807 253.693 131.717C261.414 143.296 265.774 149.124 252.114 157.761C230.153 171.645 137.587 205.564 110.033 213.075C107.118 213.873 91.2829 217.443 89.9133 217.284L89.8941 217.3Z" fill="#242062"/>
<path d="M162.753 135.02C162.615 136.804 149.923 141.514 148.04 141.028C139.043 138.772 110.998 101.72 105.519 91.7851C82.5225 50.2408 124.594 84.6067 136.369 97.378C146.884 108.796 153.976 122.48 162.77 135.039L162.753 135.02Z" fill="#DEDB42"/>
</svg>
