<svg width="252" height="258" viewBox="0 0 252 258" fill="none" xmlns="http://www.w3.org/2000/svg">
<path d="M95.8437 61.888L172.285 179.978L211.649 154.497C213.03 153.603 231.991 169.996 219.437 181.198C202.727 196.084 159.836 221.376 139 233.568C133.078 237.039 119.522 240.871 112.216 245.419C108.691 247.61 107.016 252.101 103.159 253.965L98.3183 246.487C109.337 243.485 118.07 236.113 127.633 230.164L32.9847 83.9486L4.85896 102.155L0.00486236 94.6562L119.029 17.6094C126.374 12.1917 137.756 34.7573 134.251 37.0262L95.8224 61.9018L95.8437 61.888Z" fill="#DACAB3"/>
<path d="M175.482 172.573C159.58 131.29 135.034 93.371 103.894 61.982L159.189 26.1882C159.381 26.0644 163.685 26.9859 163.809 27.1771L231.752 132.139C231.876 132.33 230.955 136.634 230.763 136.758L175.468 172.552L175.482 172.573Z" fill="#DACAB3"/>
</svg>
