<svg width="365" height="240" viewBox="0 0 365 240" fill="none" xmlns="http://www.w3.org/2000/svg">
<path d="M305.791 213.912C304.811 213.324 304.771 209.011 302.066 208.463C297.911 207.561 234.4 212.932 232.008 215.519C229.107 218.616 238.712 241.669 219.737 239.787C204.526 238.258 211.975 216.578 217.973 208.463L64.0965 184.234C46.6114 185.959 57.667 203.209 52.0608 206.816C32.3018 219.597 30.2632 188.076 44.9648 177.334C6.15261 173.453 -10.47 77.8733 6.81909 55.3308C25.4411 31.0634 142.309 3.30674 174.731 0.915278C232.361 -3.35799 337.076 5.34529 357.972 70.0715C371.34 111.432 362.088 156.909 338.487 192.35C335.39 196.976 329.274 198.23 327.079 201.68C320.728 211.756 327.863 226.928 305.673 213.873L305.791 213.912Z" fill="#DEDB42"/>
<path d="M238.79 115.075C227.578 148.242 237.967 181.722 191.98 181.017C145.994 180.311 94.1658 161.336 49.3161 157.494C38.8094 152.594 22.422 117.859 28.2635 108.646C28.9299 107.587 48.5321 99.0407 51.0019 98.531C87.1091 90.6902 137.447 96.3356 174.221 101.824C196.018 105.078 217.385 110.41 238.79 115.114V115.075Z" fill="#869BDF"/>
</svg>
