<svg width="198" height="197" viewBox="0 0 198 197" fill="none" xmlns="http://www.w3.org/2000/svg">
<path d="M197.675 183.771L188.786 184.352L176.552 100.098C172.714 100.729 168.105 100.067 164.455 100.864C160.328 101.743 173.019 155.384 167.927 156.63C163.735 157.666 162.66 158.294 162.132 153.713C160.128 136.27 157.121 118.994 156.503 101.41L42.847 108.848C41.9798 114.585 45.8567 164.137 43.161 164.796C38.9179 165.834 37.919 166.458 37.3657 161.878C35.3064 144.363 35.6779 126.79 36.1806 109.284L22.7975 110.16L21.6487 195.291C9.70115 199.116 11.5895 189.609 11.6662 179.156C12.0102 137.139 12.9121 86.2087 16.3023 44.6257C17.8537 25.7075 22.2433 21.8699 37.5965 10.7974C71.4556 10.8638 108.974 2.90547 142.354 3.78938C156.173 4.15294 157.658 10.9535 168.813 16.7155C181.901 71.3959 189.082 128.035 197.648 183.747L197.675 183.771Z" fill="#DEDB42"/>
<path d="M149.134 64.3691C150.601 65.0846 156.209 75.2164 154.899 76.8998C118.415 88.6451 78.9058 91.7633 41.2683 84.3363C39.6375 82.6679 44.0968 71.3701 46.4274 70.5583C63.1445 72.9638 139.598 59.7184 149.134 64.3691Z" fill="#242062"/>
</svg>
