<svg width="243" height="150" viewBox="0 0 243 150" fill="none" xmlns="http://www.w3.org/2000/svg">
<path fill-rule="evenodd" clip-rule="evenodd" d="M227.419 30.2683L242.88 37.535C239.75 43.7175 233.328 81.5398 231.422 82.9007C230.615 83.4637 222.907 81.0294 220.378 81.1381C215.523 89.076 222.804 92.7499 222.71 96.0663C222.317 110.251 215.629 126.302 217.352 141.516C182.557 148.238 198.275 126.017 195.721 122.432C195.193 121.708 178.879 119.258 178.159 119.758C175.878 121.368 171.562 145.354 170.845 150.007L144.487 145.929L151.992 113.199L81.625 95.0492C78.4845 104.772 68.9678 104.51 60.4358 100.97C57.286 99.6733 59.6515 90.4672 56.6544 87.7334C55.8505 86.9901 38.0611 81.5621 35.9081 81.2441C26.0008 79.7399 29.188 102.798 26.7543 104.564C25.7691 105.278 8.51221 101.012 4.68881 101.042C4.65911 96.7327 9.76682 75.6424 8.94118 74.5581C8.26128 73.6809 0.769205 74.0731 0.091112 73.1714C-0.739889 72.1162 4.39425 51.0251 4.31856 46.6824C12.8623 46.944 61.0141 54.475 63.5707 51.7824C65.6646 49.5796 65.4219 45.7992 65.9725 42.9914C63.1063 42.4827 50.896 39.202 50.942 36.9802C51.0178 34.0966 62.2785 0.787357 64.0955 0.000180343L227.419 30.2683ZM79.2578 58.6431C114.362 63.4767 148.147 76.5815 182.612 84.132C194.003 86.6162 201.401 90.3587 203.084 76.1233L203.08 76.1484L81.0206 47.5973L79.2578 58.6431ZM242.937 37.5619L242.88 37.535C242.885 37.5247 242.891 37.5141 242.896 37.5039L242.937 37.5619Z" fill="#DEDB42"/>
</svg>
