<svg width="191" height="207" viewBox="0 0 191 207" fill="none" xmlns="http://www.w3.org/2000/svg">
<path d="M23.5548 162.262C43.3248 173.635 65.884 178.218 88.1845 181.645C85.0323 186.503 85.706 189.917 88.2226 194.909C77.4551 197.578 25.2581 195.24 20.5946 198.419C17.5621 200.488 18.3355 203.073 18.4467 206.213L164.854 205.792L162.636 198.011L94.989 194.94C90.7459 175.559 104.781 181.497 118.94 177.462C123.635 176.143 126.745 174.576 130.978 172.655C180.168 150.232 200.788 84.2307 185.786 35.0624C184.163 29.7415 181.64 22.5894 177.874 18.4553C169.191 8.93435 137.984 -1.75282 125.428 0.242638C90.7692 5.79332 121.392 44.2656 127.85 61.2538C134.076 77.5894 140.065 100.382 125.551 114.29C97.1081 141.502 55.3972 82.9902 14.7835 113.151C-11.2561 132.493 0.562266 149.014 23.5548 162.262Z" fill="#DACAB3"/>
</svg>
