<svg width="291" height="275" viewBox="0 0 291 275" fill="none" xmlns="http://www.w3.org/2000/svg">
<path d="M274.252 207.818C275.075 208.618 285.14 208.084 287.646 206.332C295.167 201.113 287.721 186.753 287.497 179.21C286.374 144.622 297.337 115.406 252.813 110.339C236.126 108.435 155.009 113.539 149.285 109.882C143.897 77.5798 133.795 31.145 109.175 7.83248C90.3181 -9.99478 34.9808 9.08958 8.49081 2.76623C4.59961 2.9567 1.94315 4.32801 0.671021 8.28962C-3.66916 21.5839 14.3275 57.0098 17.9194 73.8467C24.6168 105.121 24.9162 143.822 23.4944 175.972C23.0454 185.915 14.8514 233.911 17.1712 237.568C19.6406 241.491 34.4944 244.044 39.321 235.739C47.1408 222.331 47.4401 177.953 49.7599 160.659C75.1275 166.83 145.693 156.774 162.268 172.163C164.999 174.715 171.921 186.562 171.921 189.229V269.908C171.921 276.079 190.666 278.632 194.37 265.871C200.506 244.729 187.448 185.496 200.095 170.868C206.044 163.973 228.53 160.888 238.745 156.431C247.462 152.622 260.408 141.537 267.742 138.832C271.333 137.499 274.289 141.308 274.289 142.223C274.289 151.631 271.969 205.494 274.289 207.78L274.252 207.818Z" fill="#242062"/>
</svg>
