<svg width="251" height="313" viewBox="0 0 251 313" fill="none" xmlns="http://www.w3.org/2000/svg">
<path d="M139.4 186.62L250.263 86.552L242.871 82.0668L129.384 179.676C119.53 179.553 111.654 172.745 103.606 167.893L173.365 87.9018C175.272 84.6871 174.63 79.3271 170.921 78.0691C161.815 74.9321 100.175 160.468 93.7086 161.442C90.5339 161.927 71.7448 146.896 65.9702 144.821C63.5754 142.427 66.6423 136.339 67.6273 133.624C82.6258 93.3511 108.233 52.1019 124.688 11.5818C129.901 -1.27782 117.731 -3.86137 112.326 6.01592L50.195 139.631L26.5386 133.854C25.4043 129.106 55.95 56.3073 58.7668 41.7396C61.4238 27.99 55.8577 20.5456 48.6749 35.6648C35.3393 63.675 29.8297 100.562 16.1464 129.198C14.2413 135.889 2.93377 124.825 0.194444 132.681C-1.01641 136.135 3.71913 139.706 6.28028 141.707C27.7905 158.417 55.7502 165.857 77.3906 182.418C78.9477 187.35 53.5167 265.903 53.3896 283.008C53.2415 301.017 83.8966 317.757 94.9208 310.889C106.812 303.487 132.028 230.874 141.53 212.68C147.756 200.789 161.71 198.058 139.428 186.638L139.4 186.62Z" fill="#DACAB3"/>
</svg>
