<svg width="210" height="242" viewBox="0 0 210 242" fill="none" xmlns="http://www.w3.org/2000/svg">
<path d="M209.226 174.387C203.827 176.089 198.467 177.836 196.353 171.418L171.351 78.8176C170.251 78.0358 157.088 85.4121 159.517 90.1792L191.841 212.733L178.057 216.089L140.002 91.8379C135.091 87.6203 93.9344 100.074 91.5023 105.472C88.9637 129.098 96.2104 165.643 91.6605 187.799C90.5796 193.089 83.0107 193.91 82.1525 191.744L78.3949 106.289C66.6637 108.344 54.6497 111.049 51.83 124.359L49.4004 234.522C42.4523 247.621 37.4761 240.989 36.337 228.505C32.4126 185.24 47.8796 120.128 32.5281 80.2808C24.8781 60.4062 6.55665 36.4186 0.796962 16.3875C-6.32644 -8.33842 36.2978 0.394995 49.3101 7.44584C79.9438 24.071 86.7476 59.7021 129.528 59.0066C142.015 58.8105 167.687 50.7633 176.427 59.048C185.166 67.3327 201.343 156.724 209.181 174.315L209.226 174.387Z" fill="#DACAB3"/>
</svg>
