<svg width="176" height="253" viewBox="0 0 176 253" fill="none" xmlns="http://www.w3.org/2000/svg">
<path d="M29.7393 201.5C10.1515 199.801 48.2611 187.109 48.1306 185.523L30.4717 161.257C28.4915 164.395 -6.80134 172.184 1.17013 162.201C2.04459 161.097 24.9864 156.311 28.8456 155.272L30.8282 152.8C10.6608 107.389 30.3411 51.1512 61.9304 15.9597C71.9097 4.85277 87.6826 -9.07481 99.956 7.9799C102.638 11.7036 100.027 17.0486 104.158 21.7197C114.016 32.8188 135.375 32.9923 136.905 50.8601C138.376 68.1771 117.794 81.3757 109.296 94.1824C83.7857 132.496 99.8147 171.364 145.38 181.285C158.751 184.185 183.407 179.537 172.653 205.171C160.944 233.145 136.709 234.73 110.676 229.091C109.11 231.059 115.483 256.513 105.842 251.906C101.015 249.613 105.807 228.442 101.537 224.455C99.7525 222.777 83.5178 217.438 78.3146 214.13C73.1113 210.822 54.6347 193.903 53.0526 193.55C48.9685 192.583 33.6841 201.854 29.6684 201.509L29.7393 201.5Z" fill="#242062"/>
</svg>
