<svg width="271" height="198" viewBox="0 0 271 198" fill="none" xmlns="http://www.w3.org/2000/svg">
<path d="M226.04 29.6415C225.842 27.9917 200.535 11.3881 198.513 11.048C193.042 10.1307 187.589 18.7618 185.974 18.951C182.338 19.3502 163.067 3.4504 159.033 -6.39151e-05L114.659 81.4219C96.4637 80.4016 38.0696 63.3782 24.5318 73.7549C12.5277 82.9383 16.6414 91.884 13.6476 95.5593C11.2213 98.5061 2.18205 97.236 -8.46381e-05 102.84C49.6489 124.459 101.564 140.608 152.196 159.772L170.72 197.808C180.665 195.299 169.75 156.806 172.042 148.351L213.132 55.9521C216.27 55.7245 255.664 85.3485 264.182 88.9048C267.034 90.0891 269.52 89.1956 270.975 86.4833L219.701 46.7532C216.298 41.2368 226.223 30.9554 226.079 29.6733L226.04 29.6415ZM136.122 90.5629L126.089 86.9554L166.31 25.8988L176.552 34.3324L136.122 90.5629Z" fill="#DEDB40"/>
</svg>
