<svg width="802" height="809" viewBox="0 0 802 809" fill="none" xmlns="http://www.w3.org/2000/svg">
<path d="M544.687 774.808C497.88 818.95 111.032 827.501 52.4704 748.302L0 338.413C0 302.394 67.7517 314.257 75.9803 299.294C97.1394 260.817 102.589 49.8333 128.664 31.129C153.029 24.3955 177.501 15.952 202.935 13.1731C364.834 -4.0348 558.686 -5.10355 720.265 14.242C778.612 21.2961 809.282 23.3267 799.451 90.8756C783.635 199.467 638.086 589.584 586.47 698.602C581.02 710.146 548.961 770.747 544.687 774.702V774.808Z" fill="#DEDB42"/>
<path d="M480.995 315.005C486.338 320.349 466.568 374.004 459.836 378.707C427.883 401.365 232.001 389.502 185.088 379.775C-11.3287 339.374 214.475 298.866 287.784 296.194C353.292 293.843 416.663 308.699 481.102 315.005H480.995Z" fill="#869BDF"/>
</svg>
