<svg width="733" height="1001" viewBox="0 0 733 1001" fill="none" xmlns="http://www.w3.org/2000/svg">
<path d="M640.047 898.349C644.108 904.975 644.214 936.292 640.26 942.704C633.314 953.927 485.842 985.778 462.652 1000.63L418.41 887.126C338.69 867.888 164.073 945.483 100.917 923.573C62.7662 910.319 2.92223 665.134 0.571223 618.427C-4.23767 523.623 20.2343 460.243 115.343 431.705C200.087 406.268 284.83 446.241 318.385 351.865C356.75 244.236 351.834 103.687 465.217 36.5653C528.801 -1.0569 683.54 -30.663 710.791 58.9034C710.363 157.448 734.835 269.353 732.27 365.439C727.141 557.077 609.804 462.38 504.757 528.86C436.043 572.254 403.877 697.84 445.02 768.06C486.162 838.281 633.742 887.981 640.047 898.242V898.349Z" fill="#242062"/>
<path d="M453.141 491.345C413.281 537.624 383.358 587.324 387.099 651.56C362.306 637.131 355.681 605.387 335.27 585.614C267.945 520.417 143.769 519.882 57.209 538.373C58.3845 463.876 191.644 429.247 248.496 446.134C261.427 449.982 271.579 467.617 286.219 474.351C341.254 499.682 394.472 489.955 453.141 491.345Z" fill="#DEDB42"/>
</svg>
