<svg width="868" height="888" viewBox="0 0 868 888" fill="none" xmlns="http://www.w3.org/2000/svg">
<path d="M866.348 207.679C874.149 215.16 848.716 402.31 840.38 422.189C827.556 452.651 747.943 521.482 714.708 533.987L743.668 886.695L715.456 863.074L696.541 537.728H658.925C669.932 592.558 670.145 648.457 676.664 704.035C677.947 715.471 685 743.368 663.734 735.886C647.704 730.221 653.261 566.906 639.369 538.583C501.3 555.684 363.659 557.18 225.27 537.728C219.499 543.606 218.537 681.483 216.186 703.18C214.69 717.289 214.156 732.252 197.058 735.779L206.355 537.728H178.143L159.228 886.695C148.969 888.512 141.168 886.268 135.29 877.397C125.779 863.074 164.251 578.129 159.869 533.666C158.48 526.185 131.229 528.216 116.375 519.451C109.108 515.176 25.5405 421.441 22.6552 415.028C4.06079 373.772 19.0218 270.525 0 222.535C5.55694 200.625 55.3557 211.74 72.1333 195.922C100.345 159.475 140.954 38.6996 169.059 14.7582C201.653 -13.0309 238.735 9.52078 276.778 10.1621C386.528 11.7653 497.88 12.2997 607.63 10.1621C631.995 9.73455 658.07 -4.90795 680.618 1.71869C721.547 13.6894 767.605 186.302 818.793 203.724C833.006 208.534 864.745 206.182 866.562 207.786L866.348 207.679Z" fill="#DACAB3"/>
<path d="M753.18 405.729C755.317 419.517 736.616 418.876 726.784 421.655C583.586 461.842 331.707 461.201 185.517 431.274C168.526 427.747 128.238 423.686 121.398 405.729H753.18Z" fill="#242062"/>
</svg>
