<svg width="993" height="655" viewBox="0 0 993 655" fill="none" xmlns="http://www.w3.org/2000/svg">
<path d="M833.534 583.181C830.862 581.578 830.756 569.821 823.382 568.325C812.054 565.866 638.934 580.509 632.416 587.563C624.508 596.007 650.689 658.853 598.967 653.723C557.504 649.554 577.808 590.449 594.158 568.325L174.716 502.272C127.055 506.974 157.191 554.002 141.909 563.835C88.0494 598.679 82.4925 512.746 122.567 483.461C16.771 472.88 -28.5394 212.303 18.5877 150.846C69.3482 84.687 387.91 9.01505 476.287 2.49529C633.377 -9.15476 918.812 14.5727 975.77 191.034C1012.21 303.793 986.991 427.776 922.659 524.396C914.216 537.008 897.546 540.428 891.561 549.834C874.249 577.302 893.699 618.665 833.213 583.074L833.534 583.181Z" fill="#242062"/>
<path d="M650.904 313.734C620.341 404.155 648.66 495.432 523.308 493.508C397.956 491.584 256.682 439.853 134.429 429.379C105.79 416.019 61.1205 321.322 77.0433 296.205C78.8599 293.319 132.292 270.019 139.024 268.63C237.446 247.253 374.66 262.644 474.899 277.608C534.315 286.479 592.556 301.015 650.904 313.841V313.734Z" fill="#869BDF"/>
</svg>
