<svg width="786" height="781" viewBox="0 0 786 781" fill="none" xmlns="http://www.w3.org/2000/svg">
<path d="M785.67 777.849H748.054L719.735 419.37C703.385 420.973 684.149 416.911 668.547 419.263C650.914 421.828 689.599 651.409 667.799 655.256C649.845 658.463 645.143 660.814 644.182 641.362C640.548 567.293 632.64 493.652 634.885 419.37H153.889C148.652 443.311 151.324 653.226 139.783 655.256C121.616 658.463 117.234 660.814 116.166 641.362C112.319 566.973 118.73 493.011 125.676 419.37H69.0385L40.7195 777.849C-10.6822 790.675 -0.102806 751.129 3.10312 707.094C16.1406 530.099 33.9871 315.695 59.7413 141.372C71.4964 62.0657 91.0524 47.1023 158.804 4.67043C301.468 14.2897 461.765 -8.90346 602.184 4.02917C660.318 9.37323 664.699 38.4449 710.117 65.8065C750.191 299.876 764.831 540.573 785.563 777.743L785.67 777.849Z" fill="#242062"/>
<path d="M614.046 261.186C620.03 264.606 640.869 308.855 634.884 315.588C477.901 355.027 310.551 357.272 153.995 315.588C147.584 308.107 169.491 261.72 179.536 258.941C249.318 273.691 575.147 238.954 614.046 261.186Z" fill="#DACAB3"/>
</svg>
