<svg width="991" height="556" viewBox="0 0 991 556" fill="none" xmlns="http://www.w3.org/2000/svg">
<path d="M990.128 37.4084C981.151 64.8769 979.548 227.443 972.495 234.391C969.503 237.276 935.734 232.253 925.261 234.391C910.3 270.73 943.108 281.205 944.924 295.099C952.725 354.525 935.52 425.922 952.832 488.234C812.199 539.43 862.959 436.289 849.922 423.036C847.25 420.364 777.575 421.005 774.903 423.57C766.461 431.8 764.431 534.727 764.537 554.607L651.903 555.141L661.413 413.63L355.889 384.772C349.263 427.418 309.403 432.655 271.466 423.57C257.467 420.257 261.207 380.284 246.887 370.878C243.04 368.313 165.243 357.518 156.053 357.625C113.734 357.945 142.374 452.001 133.397 460.979C129.764 464.613 54.9592 458.307 39.0364 460.979C36.0442 443.023 43.311 351.639 39.1433 347.685C35.7236 344.478 4.733 351.105 1.31335 347.792C-2.85436 343.944 4.51927 252.56 1.31335 234.497C37.1129 229.902 242.933 229.26 251.803 216.328C259.07 205.746 255.543 190.142 255.971 178.064C243.681 177.85 190.57 172.293 189.287 162.994C187.684 150.916 212.477 4.48901 219.53 0L920.773 17.5287L990.342 37.6222L990.128 37.4084Z" fill="#DEDB40"/>
<path d="M849.815 224.985C852.273 285.48 818.931 274.792 769.774 272.013C621.019 263.462 471.409 231.291 321.799 234.497V187.256L849.815 225.092V224.985Z" fill="#F9F9F9"/>
</svg>
