<svg width="819" height="736" viewBox="0 0 819 736" fill="none" xmlns="http://www.w3.org/2000/svg">
<path d="M103.804 320.643H697.862V122.592C697.862 115.645 799.49 86.039 810.39 156.26C824.816 249.674 816.053 459.803 811.458 561.661C810.176 590.625 792.65 647.486 792.009 683.826C791.688 701.354 803.764 717.6 801.52 735.556H763.904C778.544 689.597 772.453 641.714 773.308 594.152H37.7616V735.663H0.038496V136.808C-2.31252 98.3306 103.804 109.767 103.804 127.402V320.75V320.643Z" fill="#242062"/>
<path d="M678.947 292.32C496.103 253.95 305.35 253.95 122.612 292.32V14.1084C122.612 13.1465 135.757 0 136.718 0H664.734C665.696 0 678.841 13.1465 678.841 14.1084V292.32H678.947Z" fill="#242062"/>
</svg>
