<svg width="954" height="957" viewBox="0 0 954 957" fill="none" xmlns="http://www.w3.org/2000/svg">
<path d="M897.873 246.49C908.239 262.736 955.366 244.352 953.656 328.04C952.588 378.809 913.048 549.819 891.675 596.847C871.584 640.775 804.046 692.826 797.848 709.606C792.612 723.608 809.603 773.308 802.123 795.004C760.98 806.334 773.804 761.657 764.4 728.952C718.662 755.992 665.657 760.268 613.614 757.275C617.568 784.958 631.033 947.738 623.018 955.326C621.629 956.609 586.791 956.609 585.402 955.326C577.922 948.165 579.738 773.842 575.891 747.87L246.429 691.436C232.216 713.775 214.156 854.537 207.744 860.416C206.141 861.912 171.945 862.233 170.662 860.95C158.8 849.621 205.5 708.217 208.385 681.924C-20.8385 657.234 27.6778 399.437 0 233.878C3.41965 188.453 33.9828 189.736 71.8128 190.911L428.846 220.304C440.601 216.991 476.614 26.9559 519.574 7.71723C541.053 -1.90208 770.598 -1.2607 807.039 2.80079C843.479 6.86227 881.202 22.0394 892.423 58.9134C905.14 100.704 887.08 229.282 898.087 246.597L897.873 246.49Z" fill="#DEDB42"/>
<path d="M725.822 371.221C733.409 380.092 701.67 512.197 693.656 530.794C666.298 594.602 603.462 580.921 542.87 577.822C482.278 574.722 194.706 540.627 161.044 516.472C131.336 495.096 126.207 445.93 132.619 412.904C139.992 374.32 226.445 368.335 261.283 362.456C419.763 335.522 567.556 348.775 725.928 371.327L725.822 371.221Z" fill="#242062"/>
</svg>
