<svg width="937" height="868" viewBox="0 0 937 868" fill="none" xmlns="http://www.w3.org/2000/svg">
<path d="M475.56 620.027V761.538C511.039 755.552 690.678 769.447 701.257 804.825C707.883 835.82 669.305 844.798 645.688 851.425C562.868 874.511 271.877 877.29 199.316 835.072C190.126 829.728 180.615 826.521 183.394 813.482C193.011 768.271 379.169 755.339 419.136 761.538V620.027C321.248 619.706 54.5153 572.037 12.9451 474.562C-15.0533 408.937 2.36572 394.614 65.2019 393.118C135.305 391.515 223.04 412.143 292.395 413.105C354.376 413.96 417.853 317.125 450.981 270.098C503.665 195.388 543.205 112.127 588.622 33.2489C596.317 24.6984 613.415 11.9796 623.994 9.62826C673.793 -1.59427 897.46 -8.54136 928.557 21.1716C938.389 30.5772 937.214 34.7452 936.038 46.9297C930.588 105.928 892.865 226.597 871.813 285.489C806.839 466.973 694.418 640.976 475.56 620.134V620.027Z" fill="#242062"/>
<path d="M593.432 195.709H791.451C826.503 195.709 769.437 316.378 760.14 334.12C676.359 493.801 565.754 502.565 409.732 426.786C486.461 362.23 535.832 276.191 593.432 195.709Z" fill="#869BDF"/>
</svg>
