<svg width="809" height="793" viewBox="0 0 809 793" fill="none" xmlns="http://www.w3.org/2000/svg">
<path d="M632.493 594.162V792.213C624.478 796.167 604.174 784.197 604.174 778.104V594.162H557.047L561.642 641.403C531.079 644.182 543.796 595.444 532.789 593.627C500.195 588.283 311.045 587.963 279.414 593.627C271.506 595.017 274.818 648.885 245.858 650.809L255.155 594.269H198.624V792.213H170.305V594.162C170.305 592.879 154.703 592.879 146.902 585.077C77.0127 515.069 -2.70784 369.39 0.0706289 268.494C10.9708 -119.698 958.749 -92.5503 787.767 386.491C766.073 447.2 694.581 579.198 632.279 594.055L632.493 594.162Z" fill="#DEDB42"/>
<path d="M170.52 471.569C165.818 449.231 173.725 456.392 182.702 450.407C270.972 392.263 540.163 393.439 629.929 450.3C639.547 456.392 646.386 449.551 642.004 471.569H170.52Z" fill="#869BDF"/>
</svg>
