<svg width="859" height="851" viewBox="0 0 859 851" fill="none" xmlns="http://www.w3.org/2000/svg">
<path d="M857.479 547.821C862.394 542.691 848.395 414.22 844.014 406.631C832.152 386.11 788.765 391.561 783.742 386.751C772.521 375.849 772.628 269.182 773.056 246.523L383.001 321.233C336.836 258.494 234.139 19.8278 162.968 3.36814C99.918 -11.2746 81.5375 26.5614 61.2333 26.6682C44.8831 26.6682 24.4719 -6.57182 0 1.44428C63.6911 223.757 151.64 438.695 226.125 657.588L150.786 821.865C186.158 847.837 283.724 707.395 317.921 692.004L735.332 576.679C744.63 586.405 753.927 796.641 765.361 834.37C769.208 846.982 778.933 852.753 791.864 850.188L783.635 573.366C792.612 547.18 853.631 551.99 857.479 548.035V547.821ZM411.214 416.785L395.825 373.925L707.227 340.792V397.439L411.214 416.785Z" fill="#DEDB40"/>
</svg>
