<svg width="832" height="772" viewBox="0 0 832 772" fill="none" xmlns="http://www.w3.org/2000/svg">
<path d="M47.8358 583.103C45.4847 585.348 16.7381 583.851 9.57819 578.935C-11.9015 564.292 9.36456 523.998 10.0057 502.835C13.2117 405.787 -18.0997 323.809 109.069 309.594C156.73 304.25 388.412 318.572 404.762 308.312C420.151 217.676 449.004 87.388 519.321 21.9767C573.18 -28.0437 731.232 25.5039 806.892 7.76161C818.006 8.29601 825.593 12.1437 829.227 23.2594C841.623 60.5609 790.221 159.96 779.962 207.202C760.834 294.951 759.979 403.543 764.039 493.75C765.322 521.646 788.725 656.317 782.1 666.578C775.046 677.586 732.622 684.747 718.836 661.447C696.501 623.825 695.646 499.308 689.021 450.784C616.567 468.099 415.021 439.882 367.68 483.062C359.879 490.223 340.109 523.464 340.109 530.945V757.32C340.109 774.634 286.57 781.795 275.991 745.99C258.465 686.671 295.761 520.471 259.641 479.428C242.649 460.083 178.424 451.426 149.25 438.92C124.35 428.232 87.3754 397.13 66.43 389.541C56.1711 385.8 47.7288 396.489 47.7288 399.054C47.7288 425.453 54.3544 576.583 47.7288 582.996L47.8358 583.103Z" fill="#DACAB3"/>
</svg>
