<svg width="724" height="992" viewBox="0 0 724 992" fill="none" xmlns="http://www.w3.org/2000/svg">
<path d="M723.725 859.716C701.177 861.212 678.736 862.922 676.598 836.095L667.087 454.208C663.561 450.147 605.534 466.286 610.449 487.021L620.067 991.714H563.429L533.186 475.05C518.119 454.101 346.708 463.507 332.175 482.104C300.009 571.136 293.597 719.381 255.019 800.824C245.829 820.276 215.693 816.322 214.411 807.13L280.56 472.912C233.112 469.813 183.954 468.958 160.444 517.802L46.9542 941.8C7.62819 985.942 -5.40915 955.588 1.96448 906.209C27.6119 735.092 149.117 497.709 127.209 329.05C116.309 244.935 67.8998 134.847 64.4801 51.9071C60.2055 -50.4851 217.296 23.4767 261.11 63.0228C364.234 156.223 356.967 300.513 523.569 338.135C572.192 349.144 679.377 342.197 705.451 382.491C731.526 422.785 709.833 783.937 723.618 859.395L723.725 859.716Z" fill="#DACAB3"/>
</svg>
