<svg width="864" height="849" viewBox="0 0 864 849" fill="none" xmlns="http://www.w3.org/2000/svg">
<path d="M368.22 839.742C298.331 884.526 393.44 743.336 388.952 738.312L267.875 701.866C269.264 717.577 171.056 834.933 172.232 780.637C172.338 774.652 236.884 699.301 247.143 685.833L247.464 672.367C63.9781 570.936 -13.8191 330.133 1.99685 129.73C7.01947 66.4568 24.2246 -21.2927 108.861 4.67946C127.349 10.3442 132.264 35.1406 158.019 40.2709C219.359 52.3485 291.278 -2.16094 342.039 54.2724C391.196 108.996 356.038 206.685 360.313 271.883C372.816 467.155 525.738 557.149 703.56 473.14C755.71 448.45 826.347 369.144 855.842 483.507C888.115 608.238 811.066 676.107 709.545 724.204C709.331 734.892 795.677 804.472 751.649 813.77C729.635 818.473 691.592 734.571 667.12 732.113C656.861 731.044 588.895 754.879 563.034 757.123C537.173 759.368 432.125 749.855 425.927 752.741C409.791 760.009 382.327 830.765 368.007 839.956L368.22 839.742Z" fill="#242062"/>
</svg>
