<svg width="799" height="877" viewBox="0 0 799 877" fill="none" xmlns="http://www.w3.org/2000/svg">
<path d="M700.227 689.092C617.621 737.723 523.26 757.496 429.967 772.353C443.218 792.981 440.44 807.517 429.967 828.786C475.064 840.009 693.494 829.427 713.05 842.894C725.767 851.659 722.561 862.667 722.134 876.027H109.375L118.565 842.894L401.648 829C419.174 746.487 360.506 771.925 301.196 754.931C281.533 749.373 268.495 742.747 250.756 734.624C44.615 639.82 -42.4795 359.257 19.7155 149.876C26.448 127.218 36.9207 96.7564 52.6297 79.121C88.8567 38.5062 219.338 -7.34588 271.915 0.990851C417.037 24.1841 289.334 188.247 262.511 260.605C236.65 330.185 211.857 427.233 272.77 486.232C392.137 601.663 566.005 352.203 736.347 480.032C845.562 562.01 796.298 632.445 700.227 689.092Z" fill="#DACAB3"/>
</svg>
