<svg width="651" height="948" viewBox="0 0 651 948" fill="none" xmlns="http://www.w3.org/2000/svg">
<path d="M513.337 454.833L650.23 926.393L621.912 926.179L473.477 456.971C445.799 440.297 412.137 445.748 381.36 445.428L438.212 789.799C437.998 802.09 426.991 815.985 414.488 813.099C383.711 806.152 359.026 460.284 342.675 446.39C334.661 439.549 256.436 449.168 236.773 445C225.98 447.565 224.056 469.903 222.133 479.202C194.668 617.827 195.096 777.508 171.265 919.339C163.678 964.336 125.314 950.548 127.237 913.567L183.875 432.281L108.002 407.592C96.6741 418.921 56.5998 675.436 39.3947 721.074C23.1513 764.147 -5.16751 775.37 0.816886 720.647C11.8239 619.217 59.9129 506.457 71.0267 402.675C77.2249 380.658 26.678 392.094 32.5556 365.374C35.1203 353.617 54.4625 351.8 65.042 350.624C153.739 341.005 244.467 368.473 333.271 359.495C346.095 348.379 410.321 84.5965 439.388 36.5C469.951 -14.1617 584.188 -8.06947 603.103 30.194C623.514 71.4502 568.907 318.239 564.098 385.574C560.999 429.609 595.196 461.353 513.444 454.833H513.337Z" fill="#DEDB42"/>
</svg>
